<?xml version="1.0" standalone="no"?>
<!DOCTYPE svg PUBLIC "-//W3C//DTD SVG 20010904//EN"
 "http://www.w3.org/TR/2001/REC-SVG-20010904/DTD/svg10.dtd">
<svg version="1.0" xmlns="http://www.w3.org/2000/svg"
 width="720.000000pt" height="720.000000pt" viewBox="0 0 720.000000 720.000000"
 preserveAspectRatio="xMidYMid meet">
<metadata>
Created by potrace 1.11, written by Peter Selinger 2001-2013
</metadata>
<g transform="translate(0.000000,720.000000) scale(0.100000,-0.100000)"
fill="#000000" stroke="none">
<path d="M2785 6901 c-74 -32 -241 -292 -338 -526 -20 -49 -66 -185 -73 -217
-1 -5 -2 -9 -4 -10 -7 -10 -50 -206 -56 -258 -3 -30 -7 -57 -9 -60 -7 -11 -19
-206 -19 -305 0 -102 8 -208 18 -235 3 -8 7 -28 10 -45 5 -32 18 -79 34 -132
l10 -32 -71 48 c-112 75 -292 157 -386 176 -9 2 -46 10 -84 19 -37 9 -79 18
-95 20 -15 2 -47 8 -72 11 -25 4 -54 9 -65 11 -37 7 -210 17 -300 17 -118 0
-244 -10 -360 -29 -63 -10 -69 -11 -123 -28 -29 -8 -52 -13 -52 -11 0 8 -173
-55 -206 -76 -101 -62 -102 -237 -3 -458 70 -154 126 -253 248 -435 36 -54 71
-105 76 -115 6 -9 14 -19 19 -23 12 -8 -11 -38 -29 -38 -19 0 -160 -64 -301
-136 -256 -131 -423 -251 -508 -366 -15 -20 -29 -43 -30 -50 -2 -7 -6 -25 -11
-41 -19 -70 38 -162 204 -328 162 -161 314 -272 533 -387 185 -99 485 -202
633 -218 28 -3 52 -7 53 -9 2 -2 -22 -30 -55 -63 -93 -95 -160 -185 -242 -325
-207 -354 -315 -717 -315 -1057 0 -99 18 -139 81 -183 82 -56 298 -75 499 -43
21 3 59 8 84 11 25 3 52 7 60 10 8 3 29 7 45 9 17 2 96 20 176 40 80 20 150
36 155 36 6 0 11 -29 12 -64 4 -134 14 -240 38 -411 57 -403 170 -611 320
-590 63 8 203 59 314 113 234 114 420 249 613 445 222 226 362 440 422 645 10
34 21 62 24 62 3 0 16 -33 29 -73 30 -95 96 -226 163 -323 56 -82 286 -324
365 -384 25 -19 55 -43 67 -54 12 -10 72 -51 132 -91 177 -118 379 -212 565
-262 8 -3 39 -7 67 -10 70 -7 127 25 176 100 66 99 101 211 133 427 3 19 7 46
9 60 9 53 22 278 24 430 l1 36 113 -23 c115 -23 155 -30 217 -38 19 -3 51 -7
70 -10 116 -15 170 -19 300 -19 145 0 206 3 225 13 6 3 21 7 35 9 69 9 155 76
170 132 12 46 5 190 -15 313 -3 15 -7 42 -11 60 -3 17 -14 68 -26 112 -11 44
-21 85 -23 90 -1 6 -7 23 -13 38 -7 16 -12 32 -12 36 0 14 -72 186 -112 265
-36 73 -130 236 -150 261 -4 6 -37 49 -72 96 l-63 86 86 28 c150 48 351 132
436 182 230 135 339 216 481 357 149 150 167 176 170 244 3 59 -6 85 -47 147
-90 135 -339 310 -654 461 -94 45 -133 68 -128 77 4 7 26 37 49 67 123 164
255 377 326 530 61 130 82 204 82 296 1 127 -30 158 -221 225 -59 20 -223 64
-278 73 -16 3 -40 8 -52 10 -130 26 -591 27 -665 1 -7 -2 -31 -6 -53 -9 -65
-7 -224 -44 -305 -71 -89 -30 -235 -103 -302 -151 -27 -19 -48 -32 -48 -30 0
1 11 34 25 72 27 74 54 170 62 219 2 17 9 48 14 70 9 40 5 388 -5 435 -3 14
-7 43 -10 65 -12 89 -17 121 -23 140 -3 11 -7 29 -8 40 -4 27 -44 175 -55 200
-7 16 -30 85 -35 105 -5 17 -35 88 -77 178 -26 56 -99 185 -109 192 -3 3 -13
19 -22 35 -26 51 -84 104 -128 115 -135 37 -324 -73 -589 -339 -80 -81 -154
-157 -165 -171 -78 -97 -99 -120 -109 -120 -6 0 -24 19 -41 43 -51 72 -205
246 -314 355 -183 183 -335 282 -446 288 -33 2 -69 0 -80 -5z m1337 -2947
c-27 -54 -75 -164 -106 -244 -80 -202 -78 -198 -84 -180 -8 25 -45 62 -76 75
-57 24 -144 -21 -148 -78 -4 -66 24 -122 67 -133 14 -3 25 -15 28 -30 4 -25
-5 -37 -38 -48 -54 -17 -78 -124 -38 -168 24 -27 72 -51 89 -44 8 3 14 2 14
-3 0 -5 -8 -11 -18 -13 -14 -4 -29 -47 -69 -189 -46 -169 -65 -241 -77 -309
-3 -14 -7 -36 -10 -50 -3 -14 -7 -37 -8 -52 -4 -47 -13 -32 -33 55 -10 45 -20
89 -22 97 -2 8 -5 20 -7 25 -13 44 -26 91 -26 97 -1 4 -19 58 -40 119 l-39
111 29 -27 c57 -54 154 -33 184 40 37 89 -52 179 -145 146 -27 -9 -30 -9 -25
5 3 9 9 27 12 40 5 20 12 24 38 22 92 -6 152 75 118 158 -14 33 -58 64 -91 64
-12 0 -21 5 -21 10 0 6 7 10 15 10 8 0 15 9 15 20 0 12 9 24 23 29 63 25 84
91 53 171 -4 10 10 24 42 44 26 16 108 75 182 130 151 112 155 116 214 168 22
20 42 35 44 34 1 -2 -19 -48 -46 -102z m-896 21 c33 -27 57 -46 154 -119 58
-43 106 -80 108 -81 11 -10 10 -87 -1 -121 -14 -39 -8 -82 16 -112 8 -11 5
-11 -16 -1 -15 7 -27 16 -27 20 0 13 -55 48 -82 53 -54 9 -75 34 -114 134 -20
53 -57 141 -80 196 -24 54 -44 101 -44 104 0 3 17 -10 37 -29 20 -18 42 -38
49 -44z m266 -587 c-7 -7 -12 -24 -12 -38 0 -14 -6 -35 -14 -45 -13 -18 -14
-18 -41 3 -50 40 -130 20 -161 -39 -15 -30 -15 -75 0 -110 6 -14 -6 -16 -99
-18 -58 0 -147 -3 -198 -6 -73 -4 -88 -3 -72 7 11 6 81 57 156 113 75 57 145
105 155 108 10 3 46 8 79 12 33 3 71 8 85 10 14 3 45 7 69 10 25 3 47 7 49 10
3 3 8 3 11 0 2 -3 -1 -11 -7 -17z m448 -35 c24 -17 35 -26 90 -73 14 -12 62
-52 108 -88 45 -36 81 -67 79 -68 -1 -2 -44 -5 -95 -8 l-92 -4 -24 41 c-44 79
-106 199 -106 208 0 14 13 11 40 -8z m-3 -223 c10 -26 9 -30 -7 -30 -17 0 -34
35 -24 52 10 15 20 8 31 -22z"/>
</g>
</svg>
